<svg xmlns="http://www.w3.org/2000/svg" viewBox="0 0 547 414" width="547" height="414">
  <g fill="#EF9735" fill-rule="evenodd">
    <path d="M 129.0,53.0 L 129.0,56.0 L 133.0,55.0 L 135.0,57.0 L 135.0,60.0 L 131.0,61.0 L 132.0,62.0 L 143.0,62.0 L 152.0,74.0 L 160.0,82.0 L 161.0,86.0 L 163.0,87.0 L 173.0,103.0 L 194.0,144.0 L 203.0,177.0 L 205.0,172.0 L 202.0,161.0 L 203.0,159.0 L 193.0,130.0 L 178.0,103.0 L 154.0,73.0 L 156.0,72.0 L 166.0,81.0 L 183.0,101.0 L 204.0,138.0 L 210.0,153.0 L 213.0,166.0 L 215.0,168.0 L 215.0,177.0 L 217.0,178.0 L 317.0,178.0 L 319.0,170.0 L 318.0,168.0 L 324.0,155.0 L 327.0,142.0 L 330.0,139.0 L 336.0,124.0 L 355.0,95.0 L 378.0,72.0 L 379.0,74.0 L 366.0,88.0 L 356.0,102.0 L 340.0,130.0 L 341.0,131.0 L 335.0,142.0 L 331.0,157.0 L 332.0,158.0 L 330.0,161.0 L 328.0,177.0 L 331.0,177.0 L 333.0,174.0 L 337.0,154.0 L 344.0,135.0 L 360.0,105.0 L 386.0,68.0 L 392.0,62.0 L 398.0,63.0 L 401.0,62.0 L 404.0,58.0 L 404.0,55.0 L 401.0,51.0 L 393.0,51.0 L 389.0,56.0 L 389.0,60.0 L 387.0,62.0 L 359.0,76.0 L 339.0,89.0 L 317.0,108.0 L 296.0,131.0 L 294.0,131.0 L 289.0,123.0 L 275.0,78.0 L 264.0,23.0 L 259.0,46.0 L 259.0,53.0 L 256.0,60.0 L 256.0,66.0 L 249.0,89.0 L 248.0,97.0 L 242.0,112.0 L 242.0,116.0 L 240.0,117.0 L 236.0,126.0 L 234.0,126.0 L 211.0,102.0 L 199.0,92.0 L 163.0,69.0 L 145.0,61.0 L 140.0,51.0 L 133.0,50.0 Z M 397.0,56.0 L 401.0,55.0 L 403.0,59.0 L 401.0,61.0 L 398.0,61.0 Z M 260.0,3.0 L 258.0,4.0 L 256.0,10.0 L 259.0,14.0 L 264.0,17.0 L 270.0,13.0 L 272.0,7.0 L 271.0,5.0 L 266.0,3.0 L 268.0,5.0 L 265.0,8.0 L 262.0,8.0 Z"/>
    <path d="M 5.0,204.0 L 2.0,209.0 L 2.0,403.0 L 3.0,405.0 L 9.0,409.0 L 79.0,409.0 L 100.0,404.0 L 118.0,394.0 L 127.0,385.0 L 135.0,369.0 L 137.0,358.0 L 136.0,337.0 L 134.0,330.0 L 128.0,319.0 L 119.0,309.0 L 97.0,298.0 L 113.0,286.0 L 118.0,279.0 L 123.0,266.0 L 124.0,247.0 L 123.0,246.0 L 124.0,245.0 L 118.0,227.0 L 114.0,221.0 L 105.0,213.0 L 85.0,204.0 L 68.0,202.0 L 67.0,203.0 L 66.0,202.0 L 12.0,202.0 Z M 27.0,314.0 L 31.0,312.0 L 69.0,312.0 L 78.0,313.0 L 94.0,319.0 L 104.0,328.0 L 110.0,342.0 L 111.0,349.0 L 110.0,362.0 L 104.0,374.0 L 93.0,384.0 L 81.0,388.0 L 75.0,389.0 L 30.0,389.0 L 28.0,388.0 L 26.0,382.0 L 27.0,379.0 Z M 27.0,224.0 L 29.0,222.0 L 64.0,222.0 L 76.0,224.0 L 87.0,229.0 L 94.0,238.0 L 98.0,251.0 L 97.0,268.0 L 93.0,277.0 L 89.0,282.0 L 82.0,288.0 L 71.0,292.0 L 64.0,293.0 L 63.0,292.0 L 62.0,293.0 L 31.0,293.0 L 28.0,292.0 L 26.0,284.0 L 27.0,283.0 L 27.0,233.0 L 26.0,232.0 Z"/>
    <path d="M 474.0,200.0 L 452.0,205.0 L 435.0,214.0 L 419.0,229.0 L 413.0,237.0 L 404.0,254.0 L 398.0,273.0 L 395.0,295.0 L 395.0,323.0 L 397.0,339.0 L 402.0,358.0 L 413.0,379.0 L 426.0,393.0 L 437.0,401.0 L 457.0,409.0 L 479.0,412.0 L 486.0,411.0 L 490.0,412.0 L 504.0,410.0 L 520.0,404.0 L 523.0,404.0 L 533.0,399.0 L 543.0,390.0 L 544.0,386.0 L 543.0,373.0 L 541.0,371.0 L 538.0,371.0 L 515.0,385.0 L 499.0,389.0 L 489.0,389.0 L 488.0,390.0 L 472.0,389.0 L 465.0,387.0 L 450.0,380.0 L 446.0,375.0 L 443.0,374.0 L 438.0,366.0 L 436.0,365.0 L 428.0,349.0 L 423.0,327.0 L 422.0,317.0 L 422.0,297.0 L 423.0,296.0 L 422.0,295.0 L 423.0,294.0 L 423.0,284.0 L 427.0,271.0 L 427.0,267.0 L 433.0,253.0 L 441.0,241.0 L 450.0,232.0 L 460.0,226.0 L 472.0,222.0 L 494.0,221.0 L 513.0,226.0 L 528.0,235.0 L 532.0,236.0 L 533.0,238.0 L 537.0,240.0 L 541.0,240.0 L 543.0,236.0 L 543.0,224.0 L 540.0,217.0 L 519.0,205.0 L 498.0,200.0 Z"/>
  </g>
  <g fill="#395271" fill-rule="evenodd">
    <path d="M 322.0,305.0 L 361.0,328.0 L 351.0,321.0 L 345.0,319.0 L 341.0,315.0 L 339.0,315.0 Z M 262.0,245.0 L 261.0,246.0 L 255.0,245.0 L 254.0,247.0 L 254.0,255.0 L 257.0,262.0 L 258.0,262.0 L 257.0,254.0 L 258.0,248.0 L 257.0,247.0 L 262.0,246.0 Z M 343.0,230.0 L 360.0,258.0 L 354.0,247.0 L 351.0,244.0 L 346.0,233.0 Z M 242.0,203.0 L 242.0,261.0 L 241.0,262.0 L 233.0,259.0 L 230.0,256.0 L 219.0,251.0 L 216.0,248.0 L 205.0,243.0 L 202.0,240.0 L 189.0,233.0 L 170.0,268.0 L 167.0,271.0 L 166.0,274.0 L 177.0,279.0 L 180.0,282.0 L 201.0,293.0 L 202.0,295.0 L 213.0,300.0 L 217.0,303.0 L 217.0,305.0 L 192.0,320.0 L 188.0,321.0 L 185.0,324.0 L 176.0,328.0 L 166.0,335.0 L 170.0,340.0 L 189.0,374.0 L 222.0,356.0 L 234.0,348.0 L 236.0,348.0 L 239.0,345.0 L 242.0,346.0 L 242.0,405.0 L 288.0,405.0 L 288.0,346.0 L 289.0,345.0 L 293.0,346.0 L 308.0,356.0 L 310.0,356.0 L 340.0,374.0 L 342.0,373.0 L 364.0,334.0 L 314.0,305.0 L 313.0,302.0 L 348.0,283.0 L 355.0,277.0 L 356.0,278.0 L 364.0,273.0 L 341.0,233.0 L 309.0,252.0 L 289.0,262.0 L 288.0,261.0 L 288.0,204.0 L 287.0,203.0 Z M 271.0,372.0 L 274.0,376.0 L 274.0,379.0 L 270.0,383.0 L 268.0,379.0 L 269.0,373.0 Z M 268.0,352.0 L 269.0,353.0 L 269.0,374.0 L 268.0,375.0 L 268.0,385.0 L 269.0,386.0 L 268.0,390.0 L 264.0,392.0 L 262.0,390.0 L 261.0,384.0 L 262.0,383.0 L 261.0,382.0 L 261.0,360.0 Z M 274.0,328.0 L 276.0,331.0 L 276.0,341.0 L 269.0,351.0 L 262.0,357.0 L 260.0,368.0 L 256.0,362.0 L 257.0,354.0 L 263.0,346.0 L 270.0,340.0 L 271.0,329.0 Z M 268.0,216.0 L 273.0,221.0 L 274.0,225.0 L 273.0,227.0 L 273.0,261.0 L 272.0,262.0 L 271.0,289.0 L 273.0,272.0 L 280.0,278.0 L 282.0,288.0 L 280.0,296.0 L 274.0,304.0 L 268.0,309.0 L 271.0,311.0 L 270.0,313.0 L 271.0,314.0 L 270.0,316.0 L 270.0,338.0 L 262.0,347.0 L 260.0,345.0 L 260.0,322.0 L 261.0,321.0 L 260.0,320.0 L 259.0,324.0 L 257.0,322.0 L 256.0,312.0 L 260.0,303.0 L 269.0,295.0 L 269.0,293.0 L 269.0,295.0 L 261.0,301.0 L 259.0,300.0 L 258.0,267.0 L 259.0,272.0 L 258.0,275.0 L 256.0,276.0 L 248.0,267.0 L 245.0,258.0 L 245.0,247.0 L 247.0,242.0 L 255.0,235.0 L 259.0,234.0 L 260.0,235.0 L 257.0,233.0 L 258.0,220.0 L 261.0,217.0 Z M 238.0,201.0 L 238.0,254.0 L 236.0,255.0 L 228.0,251.0 L 238.0,256.0 Z"/>
  </g>
</svg>
